<svg width="64" height="64" viewBox="0 0 64 64" fill="none" xmlns="http://www.w3.org/2000/svg">
  <defs>
    <linearGradient id="bg" x1="12" y1="8" x2="56" y2="60" gradientUnits="userSpaceOnUse">
      <stop stop-color="#0EA5E9" stop-opacity="0.45" />
      <stop offset="0.55" stop-color="#6366F1" stop-opacity="0.35" />
      <stop offset="1" stop-color="#EC4899" stop-opacity="0.42" />
    </linearGradient>
    <linearGradient id="g1" x1="12" y1="14" x2="54" y2="54" gradientUnits="userSpaceOnUse">
      <stop stop-color="#22D3EE" />
      <stop offset="0.5" stop-color="#A855F7" />
      <stop offset="1" stop-color="#FB7185" />
    </linearGradient>
    <linearGradient id="g2" x1="18" y1="20" x2="48" y2="44" gradientUnits="userSpaceOnUse">
      <stop stop-color="#C084FC" />
      <stop offset="1" stop-color="#38BDF8" />
    </linearGradient>
    <radialGradient id="g3" cx="0" cy="0" r="1" gradientUnits="userSpaceOnUse" gradientTransform="translate(44 18) rotate(90) scale(7)">
      <stop stop-color="#A5F3FC" />
      <stop offset="1" stop-color="#2563EB" />
    </radialGradient>
  </defs>
  <rect width="64" height="64" rx="16" fill="#070C18" />
  <rect width="64" height="64" rx="16" fill="url(#bg)" />
  <path d="M18.5 14H39c7 0 12.5 5.5 12.5 12.5S46 39 39 39h-9c-2.8 0-5 2.2-5 5s2.2 5 5 5h9.5c1.66 0 3 1.34 3 3s-1.34 3-3 3H24.5C17.044 55 11 48.956 11 41.5V26.5C11 19.044 17.044 14 24.5 14Z" fill="url(#g1)" opacity="0.92" />
  <path d="M23.5 22h14c3.038 0 5.5 2.462 5.5 5.5S40.538 33 37.5 33h-8.4l-5.2 8.5H20c-3.038 0-5.5-2.462-5.5-5.5C14.5 27.701 18.701 23.5 23.5 23.5Z" fill="url(#g2)" opacity="0.98" />
  <circle cx="44" cy="18" r="5.5" fill="url(#g3)" />
</svg>
